:SAMPLES-PER-SECOND 30
:FULLY-SPECIFIED
:DEGREES
990
root  76.3407 38.5595 -16.8803 5.46062 72.5485 10.5001
RightUpLeg  -1.77978 2.57772 -6.20732
RightLeg  21.428 13.9088 4.83241
RightFoot  -13.3333 -0.0861535 0.234025
RightToes  -8.14909e-010 0 -3.6325e-017
Spine  5.65592 0.69287 13.2644
Spine1  7.71523 2.78498 -6.33435
HEad  -22.7793 -62.283 -1.70198
LeftShoulder1  -0.232496 4.18755 -27.8258
LeftArm  -3.38339 22.3761 -43.6474
LeftForeArm  26.3325 -18.7307 -4.40637
LeftHand  -0.00880623 7.72364 1.60086
RightShoulder  -0.91672 -6.11048 28.5944
RightArm  -0.629784 14.3182 24.89
RightForeArm  34.7554 36.125 6.11366
RightHand  -0.333862 4.02937 -4.445
LeftUpLeg  -17.9895 -13.7553 6.89605
LeftLeg  18.0111 -13.8512 -4.67373
LeftFoot  -3.73913 0.5663 -8.18686
LeftToes  1.648e-009 -9.21574e-011 2.55256e-011
991
root  76.8728 38.4243 -17.2253 2.47012 68.8766 6.91266
RightUpLeg  -2.76654 5.63433 -6.30814
RightLeg  22.3136 14.7486 5.94171
RightFoot  -14.1277 -0.0733517 0.909419
RightToes  -8.14909e-010 0 -3.6325e-017
Spine  5.8488 0.743415 13.9717
Spine1  7.78175 3.03343 -6.99698
HEad  -21.6826 -60.4784 -1.21119
LeftShoulder1  -0.23284 4.18324 -28.088
LeftArm  -1.29424 22.0567 -43.2861
LeftForeArm  23.9398 -20.0317 -4.2084
LeftHand  0.0153354 7.29419 3.0723
RightShoulder  -0.920294 -6.10595 28.7912
RightArm  0.972475 12.9835 26.9897
RightForeArm  38.237 38.6469 6.58072
RightHand  -0.371889 4.54451 -4.61887
LeftUpLeg  -17.7586 -15.8041 8.6258
LeftLeg  18.1065 -18.237 -6.23913
LeftFoot  -4.21053 0.697846 -10.787
LeftToes  1.648e-009 -9.21574e-011 2.55256e-011
992
root  77.3291 38.222 -17.6159 0.391541 64.0933 3.47363
RightUpLeg  -5.26248 9.83484 -6.13555
RightLeg  23.752 15.0863 6.97313
RightFoot  -14.8104 -0.0510798 1.63112
RightToes  -8.14909e-010 0 -3.6325e-017
Spine  6.47654 0.963688 15.4092
Spine1  7.11069 3.67569 -8.49578
HEad  -20.6614 -58.5384 0.333358
LeftShoulder1  -0.234794 4.18429 -28.3343
LeftArm  2.31042 20.6682 -42.2161
LeftForeArm  21.0147 -20.4063 -4.37916
LeftHand  0.0222048 7.38285 3.41196
RightShoulder  -0.861426 -5.95012 28.6199
RightArm  2.56482 11.6287 30.5065
RightForeArm  36.2302 39.3989 6.92045
RightHand  -0.44167 5.35593 -5.07097
LeftUpLeg  -17.9167 -15.6811 10.5042
LeftLeg  19.0291 -22.3264 -8.01451
LeftFoot  -4.38641 0.832596 -13.2981
LeftToes  1.648e-009 -9.21574e-011 2.55256e-011
993
root  77.858 38.0689 -18.0905 -0.619705 58.6062 1.81549
RightUpLeg  -7.01746 13.1747 -6.66967
RightLeg  24.8087 16.9755 8.17834
RightFoot  -15.255 -0.032488 2.07275
RightToes  -8.14909e-010 0 -3.6325e-017
Spine  8.10431 1.01578 15.5089
Spine1  5.25614 3.86616 -8.7752
HEad  -15.3465 -56.3954 -1.88004
LeftShoulder1  -0.157028 3.96018 -28.2561
LeftArm  3.08162 21.0632 -42.0779
LeftForeArm  20.3627 -20.7224 -4.33206
LeftHand  0.0219953 7.8348 2.91682
RightShoulder  -0.86517 -5.96361 28.5785
RightArm  5.21988 10.0189 33.8105
RightForeArm  33.171 39.7885 7.25652
RightHand  -0.376652 5.09256 -4.47355
LeftUpLeg  -16.5437 -15.1047 10.9093
LeftLeg  19.8973 -23.7446 -8.89602
LeftFoot  -4.72494 0.729774 -11.4322
LeftToes  1.648e-009 -9.21574e-011 2.55256e-011
994
root  78.5085 38.0547 -18.5801 -0.57428 53.5548 1.02136
RightUpLeg  -8.10915 15.9745 -7.77259
RightLeg  23.9912 19.1076 8.8623
RightFoot  -14.9893 -0.0092309 2.90619
RightToes  -8.14909e-010 0 -3.6325e-017
Spine  7.39796 0.672349 13.4566
Spine1  5.99818 3.13053 -7.74756
HEad  -13.6994 -52.4761 -1.6239
LeftShoulder1  -0.212071 4.12516 -27.9999
LeftArm  1.81705 21.532 -43.0871
LeftForeArm  21.2586 -20.2966 -4.39874
LeftHand  0.0264033 7.35845 3.61309
RightShoulder  -0.83187 -5.89002 28.257
RightArm  8.12602 11.8611 39.6625
RightForeArm  27.6563 33.3447 5.78815
RightHand  -0.441205 7.10738 -4.45275
LeftUpLeg  -15.1687 -15.4898 10.3387
LeftLeg  20.1053 -21.3661 -8.12668
LeftFoot  -7.94754 0.162971 -4.53473
LeftToes  1.648e-009 -9.21574e-011 2.55256e-011
995
root  79.1168 38.1227 -19.1444 0.00492859 47.9657 1.03253
RightUpLeg  -9.25225 19.4407 -9.55269
RightLeg  22.2757 21.1235 9.04322
RightFoot  -14.1222 0.00179783 4.00386
RightToes  -8.14909e-010 0 -3.6325e-017
Spine  8.08133 0.703769 11.8897
Spine1  5.65023 3.11907 -7.90568
HEad  -13.2731 -49.2333 -0.728984
LeftShoulder1  -0.2535 4.23055 -28.2547
LeftArm  2.10554 20.7231 -43.1486
LeftForeArm  23.2342 -19.713 -4.54872
LeftHand  -0.0122792 7.22469 1.59422
RightShoulder  -0.803254 -5.83154 27.8905
RightArm  4.5202 9.5042 44.8921
RightForeArm  28.8477 29.8316 4.89725
RightHand  -0.356824 8.304 -3.3859
LeftUpLeg  -13.978 -13.7212 9.005
LeftLeg  19.2288 -16.2918 -5.88771
LeftFoot  -8.2323 0.174025 -4.65655
LeftToes  1.648e-009 -9.21574e-011 2.55256e-011
